<svg xmlns="http://www.w3.org/2000/svg" width="1200" height="280" viewBox="0 0 1200 280" role="img" aria-label="Luan Bispo Silva">
  <defs>
    <linearGradient id="g" x1="0" y1="0" x2="1" y2="1"><stop offset="0" stop-color="#0f172a"/><stop offset="1" stop-color="#4338ca"/></linearGradient>
    <pattern id="dots" width="22" height="22" patternUnits="userSpaceOnUse"><circle cx="2" cy="2" r="1.6" fill="#ffffff" fill-opacity="0.13"/></pattern>
    <clipPath id="r"><rect width="1200" height="280" rx="22"/></clipPath>
  </defs>
  <g clip-path="url(#r)" font-family="'Segoe UI', 'Helvetica Neue', Arial, sans-serif">
    <rect width="1200" height="280" fill="url(#g)"/>
    <rect width="1200" height="280" fill="url(#dots)"/>
    <circle cx="1080" cy="40" r="170" fill="#22d3ee" fill-opacity="0.16"/>
    <circle cx="1170" cy="270" r="120" fill="#ffffff" fill-opacity="0.08"/>
    <text x="1130" y="232" text-anchor="end" font-family="Consolas, 'Courier New', monospace" font-size="150" font-weight="700" fill="#ffffff" fill-opacity="0.10">&lt;/&gt;</text>
    <rect x="70" y="52" width="64" height="6" rx="3" fill="#22d3ee"/>
    <text x="70" y="128" font-size="60" font-weight="800" fill="#ffffff">Luan Bispo Silva</text>
    <text x="70" y="170" font-size="26" fill="#ffffff" fill-opacity="0.88">Ciência da Computação · Dados e Bancos de Dados · Python · SQL</text>
    <rect x="70" y="208" width="103" height="34" rx="17" fill="#ffffff" fill-opacity="0.16" stroke="#ffffff" stroke-opacity="0.35"/><text x="121.5" y="230" text-anchor="middle" font-size="17" font-weight="600" fill="#ffffff">Python</text><rect x="185" y="208" width="68" height="34" rx="17" fill="#ffffff" fill-opacity="0.16" stroke="#ffffff" stroke-opacity="0.35"/><text x="219.0" y="230" text-anchor="middle" font-size="17" font-weight="600" fill="#ffffff">SQL</text><rect x="265" y="208" width="126" height="34" rx="17" fill="#ffffff" fill-opacity="0.16" stroke="#ffffff" stroke-opacity="0.35"/><text x="328.0" y="230" text-anchor="middle" font-size="17" font-weight="600" fill="#ffffff">Power BI</text><rect x="403" y="208" width="91" height="34" rx="17" fill="#ffffff" fill-opacity="0.16" stroke="#ffffff" stroke-opacity="0.35"/><text x="448.5" y="230" text-anchor="middle" font-size="17" font-weight="600" fill="#ffffff">Excel</text>
  </g>
</svg>
